<svg width="32" height="32" viewBox="0 0 32 32" fill="none" xmlns="http://www.w3.org/2000/svg">
<g clip-path="url(#clip0_365_40)">
<path d="M2.81774 6.93408C1.78595 8.43167 1.00183 10.1132 0.526367 11.9205H7.80446L2.81774 6.93408Z" fill="#29337A"/>
<path d="M11.519 0.640625C9.67552 1.17749 7.96824 2.03417 6.46484 3.15155L11.519 8.2057V0.640625Z" fill="#29337A"/>
<path d="M6.84082 29.1155C8.25099 30.1023 9.82646 30.8662 11.5191 31.3591V24.438L6.84082 29.1155Z" fill="#29337A"/>
<path d="M0.709961 20.7246C1.23899 22.4382 2.04967 24.028 3.08571 25.4423L7.80336 20.7246H0.709961Z" fill="#29337A"/>
<path d="M3.08231 6.5625C2.99286 6.68478 2.9047 6.80881 2.8183 6.93413L7.80503 11.9206H0.52693C0.408977 12.3695 0.312709 12.8271 0.233398 13.2909H9.81124L3.08231 6.5625Z" fill="white"/>
<path d="M6.46973 28.8511C6.59146 28.9418 6.71658 29.0282 6.84081 29.1151L11.5191 24.4374V31.3585C11.9685 31.4899 12.425 31.6033 12.8894 31.6945V22.4316L6.46973 28.8511Z" fill="white"/>
<path d="M0.355469 19.3535C0.454776 19.8178 0.571986 20.2751 0.710679 20.7238H7.80414L3.08649 25.4415C3.59958 26.1425 4.16854 26.8004 4.78675 27.4087L12.8419 19.3535H0.355469Z" fill="white"/>
<path d="M11.5194 0.640224V8.2053L6.46523 3.15142C5.76846 3.66958 5.11715 4.24482 4.51367 4.86755L12.8895 13.2434V0.304199C12.4254 0.39594 11.9689 0.509637 11.5194 0.640224Z" fill="white"/>
<path d="M11.5187 20.6758L11.4707 20.7241H11.5187V20.6758Z" fill="#D32030"/>
<path d="M12.8408 19.3539H12.8888V19.3057L12.8408 19.3539Z" fill="#D32030"/>
<path d="M18.9984 13.2905H18.9521V13.337L18.9984 13.2905Z" fill="#D32030"/>
<path d="M11.5658 11.9205L11.5186 11.873V11.9205H11.5658Z" fill="#D32030"/>
<path d="M12.8887 13.2432V13.2905H12.936L12.8887 13.2432Z" fill="#D32030"/>
<path d="M20.3223 27.8174V31.404C22.0369 30.9241 23.6356 30.1674 25.0655 29.1816L21.1792 25.2954C20.8687 26.3865 20.755 26.9506 20.3223 27.8174Z" fill="#252F6C"/>
<path d="M21.1997 7.32788L25.4421 3.08542C23.918 1.96925 22.189 1.11866 20.3223 0.595703V4.28008C20.8212 5.27924 20.8632 6.03843 21.1997 7.32788Z" fill="#252F6C"/>
<path d="M28.848 25.535C29.9164 24.0977 30.7491 22.4754 31.2899 20.7241H24.0371L28.848 25.535Z" fill="#252F6C"/>
<path d="M31.473 11.921C30.9874 10.0755 30.1797 8.3624 29.1154 6.84131L24.0352 11.921H31.473Z" fill="#252F6C"/>
<path d="M22.1338 19.6248L23.2333 20.7243L28.4961 25.9871C28.6156 25.8376 28.7343 25.6885 28.8485 25.5352L24.0377 20.7243H31.2905C31.4287 20.2759 31.5461 19.8184 31.6452 19.354H22.2366C22.2212 19.5483 22.1522 19.4318 22.1338 19.6248Z" fill="#E7E7E7"/>
<path d="M21.0338 8.12978L25.8038 3.35931C25.6843 3.26662 25.5645 3.17441 25.4425 3.08496L21.2 7.32742C21.244 7.49516 20.9929 7.95799 21.0338 8.12978Z" fill="#E7E7E7"/>
<path d="M20.3225 3.98505V0.595217C19.8735 0.469427 19.4165 0.362824 18.9521 0.275879V1.92938C19.462 2.48213 19.919 3.1764 20.3225 3.98505Z" fill="#E7E7E7"/>
<path d="M22.0262 13.2906H31.7674C31.6883 12.8268 31.5919 12.3695 31.4739 11.9203H24.0361L29.1163 6.84062C28.6169 6.12716 28.0619 5.45619 27.4555 4.83447L21.7334 10.5561C21.8875 11.5939 21.9565 12.1967 22.0262 13.2906Z" fill="#E7E7E7"/>
<path d="M20.9482 25.0631L25.0659 29.1813C25.7508 28.7096 26.3958 28.1846 26.9976 27.6147L21.5814 22.1982C21.4085 23.2 21.2034 24.1675 20.9482 25.0631Z" fill="#E7E7E7"/>
<path d="M18.9521 29.8799V31.7229C19.4165 31.6365 19.8733 31.5293 20.3225 31.4035V27.8169C19.9187 28.6259 19.4617 29.3279 18.9521 29.8799Z" fill="#E7E7E7"/>
<path d="M21.7334 10.5564L27.455 4.83475C26.9398 4.30572 26.3876 3.81337 25.8035 3.35986L21.3076 7.85647C21.5074 8.69167 21.5982 9.64765 21.7334 10.5564Z" fill="#D71F28"/>
<path d="M15.2012 0.0197264C15.4677 0.00682317 15.7335 0 15.9995 0C15.732 0 15.4657 0.00682317 15.2012 0.0197264Z" fill="#D32030"/>
<path d="M15.999 32.0002C15.733 32.0002 15.4672 31.9929 15.2012 31.98C15.4657 31.9934 15.7315 32.0002 15.999 32.0002Z" fill="#D32030"/>
<path d="M15.999 32.0002C17.0085 32.0002 17.9943 31.9025 18.9518 31.7233V29.8804C18.1113 30.7914 17.1281 32.0002 15.999 32.0002Z" fill="#D32030"/>
<path d="M31.7671 13.291H22.1525C22.2798 15.2977 22.2644 17.3612 22.1064 19.3542H31.6454C31.8763 18.2721 32 17.151 32 16.0005C32 15.0763 31.9177 14.1724 31.7671 13.291Z" fill="#D71F28"/>
<path d="M22.1338 19.6255C22.0449 20.5709 21.7352 21.3075 21.5811 22.1993L26.9972 27.6155C27.5331 27.1077 28.034 26.5645 28.4958 25.9878L23.2332 20.7247L22.1338 19.6255Z" fill="#D71F28"/>
<path d="M18.9528 2.04857V0.276372C17.9956 0.0977538 17.0098 0 16 0C17.1291 0 18.1123 1.13785 18.9528 2.04857Z" fill="#D32030"/>
<path d="M20.3223 28.5091C20.755 27.6421 21.1261 26.644 21.4369 25.5531L20.3223 24.4385V28.5091Z" fill="#29337A"/>
<path d="M21.5756 6.95205C21.2385 5.6626 20.8212 4.49037 20.3223 3.49121V8.20481L21.5756 6.95205Z" fill="#29337A"/>
<path d="M22.4446 19.9353C22.4628 19.7423 22.4792 19.5486 22.4949 19.354H21.8633L22.4446 19.9353Z" fill="white"/>
<path d="M20.3225 8.20459V3.49072C19.9187 2.68208 19.462 1.98733 18.9521 1.43506V10.211L21.704 7.45911C21.6626 7.28731 21.6191 7.11903 21.5757 6.95129L20.3225 8.20459Z" fill="white"/>
<path d="M18.999 13.2907H22.5409C22.4715 12.1968 22.3608 11.1206 22.2069 10.083L18.999 13.2907Z" fill="white"/>
<path d="M18.9521 30.5642C19.462 30.0114 19.9187 29.3171 20.3225 28.5085V24.4378L21.4371 25.5524C21.6927 24.6564 21.9072 23.6991 22.0805 22.6975L18.9522 19.5693L18.9521 30.5642Z" fill="white"/>
<path d="M18.9525 30.5646V19.5697L22.0807 22.6981C22.2345 21.806 22.3555 20.8809 22.4442 19.9353L21.8629 19.354H22.4944C22.6523 17.3609 22.6677 15.2974 22.5404 13.2908H18.9985L22.2063 10.0831C22.0711 9.17413 21.9039 8.29495 21.704 7.45948L18.9526 10.2114V1.43543C18.112 0.524438 17.1288 0 15.9997 0C15.7337 0 15.4679 0.00682317 15.2014 0.0197264C14.4145 0.0591116 13.6427 0.15592 12.8893 0.304476V13.2436L4.51329 4.86776C3.99865 5.39882 3.51995 5.96467 3.08184 6.56268L8.43993 11.9208L9.81071 13.2911H0.232934C0.0828914 14.1722 0 15.0761 0 16.0003C0 17.151 0.124303 18.2719 0.35467 19.354H12.8413L4.78615 27.4092C5.31363 27.9273 5.87522 28.4099 6.46972 28.8514L12.8891 22.432V31.6951C13.6424 31.8436 14.4147 31.9403 15.2017 31.9798C15.4677 31.9927 15.7335 32 15.9995 32C17.1288 32 18.112 31.4756 18.9525 30.5646Z" fill="#E51D35"/>
</g>
<defs>
<clipPath id="clip0_365_40">
<rect width="32" height="32" fill="white"/>
</clipPath>
</defs>
</svg>
