<svg width="32" height="32" viewBox="0 0 32 32" fill="none" xmlns="http://www.w3.org/2000/svg">
<g clip-path="url(#clip0_386_43)">
<path d="M15.9997 31.9998C19.2869 31.9998 22.4399 31.1948 25.1234 29.7189L24.1171 13.9537C24.1171 9.45892 20.4944 5.03125 15.9997 5.03125C11.5049 5.03125 7.88227 9.45892 7.88227 13.9537L6.87598 29.7189C9.55941 31.1277 12.7125 31.9998 15.9997 31.9998Z" fill="#F4DBC3"/>
<path d="M15.9997 31.9999C19.2869 31.9999 22.4399 31.1949 25.1234 29.719L24.1171 13.9538C24.1171 9.45907 20.4944 5.83643 15.9997 5.83643C11.5049 5.83643 7.88227 9.45907 7.88227 13.9538L6.87598 29.719C9.55941 31.1278 12.7125 31.9999 15.9997 31.9999Z" fill="#EACBA9"/>
<path d="M8.62021 30.5241L15.9997 5.83643C11.5049 5.83643 7.88227 9.45907 7.88227 13.9538L6.87598 29.719C7.41266 29.9874 8.01644 30.2557 8.62021 30.5241Z" fill="#EAD4B5"/>
<path d="M24.1174 13.9538C24.1174 9.45907 20.696 5.83643 16 5.83643V31.9999C19.3543 31.9999 22.4403 31.1949 25.1237 29.719L24.1174 13.9538Z" fill="#E5BB98"/>
<path d="M22.0374 12.9476C22.0374 15.2956 19.3539 18.3145 15.9996 18.3145C12.6454 18.3145 9.96191 15.2956 9.96191 12.9476C9.96191 10.5996 12.6454 8.72119 15.9996 8.72119C19.3539 8.72119 22.0374 10.5996 22.0374 12.9476Z" fill="#F9EDD7"/>
<path d="M15.9996 9.25781C12.7795 9.25781 10.2303 11.002 9.96191 13.2159C10.1632 15.4968 12.7795 18.3144 15.9996 18.3144C19.2198 18.3144 21.769 15.5639 22.0374 13.2159C21.769 11.002 19.2198 9.25781 15.9996 9.25781Z" fill="#F4E6D0"/>
<path d="M9.96191 13.216C10.0961 14.4235 10.834 15.7653 12.0416 16.7715L14.725 9.39209C12.1087 9.79461 10.1632 11.3376 9.96191 13.216Z" fill="#F9EEE1"/>
<path d="M16 18.3144C19.2201 18.3144 21.7694 15.5639 22.0377 13.2159C21.8365 11.002 19.2201 9.25781 16 9.25781" fill="#EFD9C2"/>
<path d="M18.8178 17.5092C18.0128 17.1737 17.0065 17.0396 16.0002 17.0396C14.9939 17.0396 14.0547 17.2408 13.1826 17.5092C14.0547 17.9788 14.9939 18.2471 16.0002 18.2471C17.0065 18.3142 17.9457 17.9788 18.8178 17.5092Z" fill="#EFD9C2"/>
<path d="M28.4779 14.4906C27.9412 14.4906 27.4716 14.021 27.4716 13.4843C27.4716 7.1782 22.306 2.01258 15.9999 2.01258C9.69382 2.01258 4.5282 7.1782 4.5282 13.4843C4.5282 14.021 4.0586 14.4906 3.52191 14.4906C2.98523 14.4906 2.51562 14.021 2.51562 13.4843C2.51562 6.03774 8.55336 0 15.9999 0C23.4464 0 29.4842 6.03774 29.4842 13.4843C29.4842 14.021 29.0817 14.4906 28.4779 14.4906Z" fill="#00C49E"/>
</g>
<defs>
<clipPath id="clip0_386_43">
<rect width="32" height="32" fill="white"/>
</clipPath>
</defs>
</svg>
