<svg width="32" height="32" viewBox="0 0 32 32" fill="none" xmlns="http://www.w3.org/2000/svg">
<circle cx="16" cy="16" r="16" fill="#D9D9D9"/>
<path d="M21 13.375C21 12.4119 20.6566 11.4757 20.0233 10.7117C19.3899 9.94759 18.5019 9.39834 17.4969 9.14907C16.4919 8.89981 15.4262 8.96447 14.465 9.33303C13.5037 9.70159 12.7008 10.3534 12.1805 11.1875C12.0017 11.4747 11.9533 11.8158 12.0461 12.1359C12.1389 12.4561 12.3653 12.729 12.6754 12.8947C12.9855 13.0604 13.354 13.1053 13.6999 13.0196C14.0458 12.9339 14.3407 12.7245 14.5199 12.4375C14.6979 12.1527 14.9536 11.9163 15.2615 11.7517C15.5693 11.5872 15.9183 11.5004 16.2738 11.5C16.811 11.5 17.3262 11.6975 17.706 12.0492C18.0859 12.4008 18.2993 12.8777 18.2993 13.375C18.2993 13.8723 18.0859 14.3492 17.706 14.7008C17.3262 15.0525 16.811 15.25 16.2738 15.25H16.2705C16.1837 15.2581 16.0981 15.2743 16.0149 15.2984C15.9239 15.3071 15.8341 15.3242 15.7467 15.3492C15.6724 15.3866 15.602 15.4305 15.5367 15.4803C15.4592 15.5193 15.3859 15.5653 15.318 15.6175C15.2572 15.6845 15.2043 15.7573 15.1599 15.8346C15.1107 15.8909 15.067 15.9513 15.0293 16.0148C15 16.1009 14.9806 16.1897 14.9715 16.2797C14.9479 16.3516 14.9319 16.4253 14.9234 16.5V17.75L14.9266 17.7642L14.9281 18.3781C14.929 18.709 15.0716 19.0262 15.3248 19.2599C15.5779 19.4937 15.9209 19.625 16.2784 19.625H16.2817C16.6398 19.6242 16.9829 19.4917 17.2355 19.2567C17.4882 19.0217 17.6296 18.7035 17.6288 18.372L17.6267 17.5452C18.5983 17.2779 19.4511 16.7279 20.0587 15.9768C20.6663 15.2256 20.9963 14.3134 21 13.375ZM15.325 21.8625C15.1354 22.0366 15.0058 22.2588 14.9526 22.501C14.8994 22.7433 14.925 22.9946 15.0261 23.2234C15.1272 23.4521 15.2994 23.6481 15.5207 23.7863C15.7421 23.9245 16.0028 23.9989 16.2698 24C16.628 23.9973 16.9713 23.8675 17.2292 23.6375C17.4798 23.4004 17.6202 23.0819 17.6202 22.75C17.6202 22.4183 17.4798 22.0998 17.2292 21.8626C16.9707 21.6396 16.6305 21.5156 16.2771 21.5156C15.9237 21.5155 15.5835 21.6395 15.325 21.8625Z" fill="#828282"/>
</svg>
