<svg width="32" height="32" viewBox="0 0 32 32" fill="none" xmlns="http://www.w3.org/2000/svg">
<g clip-path="url(#clip0_403_116)">
<rect width="32" height="32" fill="white"/>
<path d="M16 32C24.8366 32 32 24.8366 32 16C32 7.16344 24.8366 0 16 0C7.16344 0 0 7.16344 0 16C0 24.8366 7.16344 32 16 32Z" fill="#FF5B62"/>
<path d="M27.2857 10.2312C27.2857 10.2312 23.6418 9.69259 23.018 9.89091C22.3941 10.0892 21.4297 10.2312 20.9479 10.1603C20.4659 10.0893 17.5167 9.46578 16.8505 9.76334C16.1842 10.061 15.9574 9.91922 15.9574 9.91922C15.9574 9.91922 15.2059 9.47959 14.9932 9.57891C14.7804 9.67822 14.8301 8.62891 14.8301 8.62891H12.512V9.53622C12.512 9.53622 11.7037 9.55753 11.3634 9.77009C11.0231 9.98284 10.6757 9.54322 10.1582 9.70628C9.64055 9.86941 8.26536 10.0749 8.26536 10.0749C8.26536 10.0749 5.85493 9.90484 4.91936 10.1883C3.98349 10.4718 3.7993 11.5918 4.72074 12.0032C5.64218 12.4146 7.54224 12.2301 7.76911 12.3153C7.99599 12.4002 9.20093 12.7263 9.49887 12.8964C9.79649 13.0667 10.0092 15.6327 10.5479 16.7387C11.0868 17.8445 10.633 19.4892 10.633 19.4892H16.7722C16.7722 19.4892 16.7294 17.7594 16.8146 17.0504C16.8998 16.3414 17.5802 14.47 17.8071 13.903C18.0339 13.3357 18.0339 13.1088 18.0339 13.1088C18.0339 13.1088 19.7354 12.5699 20.5009 12.2864C21.2665 12.0027 21.8337 11.8895 21.8337 11.8895C21.8337 11.8895 22.8086 12.0243 23.3759 11.9815C23.9431 11.9391 27.2891 11.2584 27.2891 11.2584C27.2891 11.2584 27.7146 11.8963 27.9839 11.8823C28.2533 11.8681 28.0832 11.0885 28.3667 11.2302C28.6501 11.3718 28.2532 11.854 28.1115 12.0526C27.9694 12.2512 29.0188 11.9108 29.1039 11.5705C29.1888 11.2302 29.1039 10.238 28.4515 10.238C27.7994 10.238 27.2858 10.2308 27.2858 10.2308L27.2857 10.2312Z" fill="#FED298"/>
<path d="M14.8248 8.84484C14.8254 8.71959 14.8298 8.62891 14.8298 8.62891H12.5117V8.94559C12.7398 9.16641 13.0033 9.40228 13.1719 9.51078C13.3538 9.55066 13.4895 9.57397 13.617 9.58097C13.7446 9.57403 13.8803 9.55034 14.0618 9.51078C14.2564 9.38553 14.578 9.09047 14.8248 8.84484Z" fill="#E8B57F"/>
<path d="M20.4262 10.0677C19.4109 9.88242 17.3882 9.52298 16.8504 9.76323C16.1842 10.0612 15.9573 9.91911 15.9573 9.91911C15.9573 9.91911 15.6282 9.72654 15.3442 9.62523C14.8491 10.5051 13.6341 10.4101 13.6341 10.4101C13.6341 10.4101 12.3931 10.5074 11.9084 9.59717C11.706 9.63179 11.4979 9.68604 11.3634 9.77042C11.0231 9.98317 10.6757 9.54354 10.1582 9.70661C9.64056 9.86973 8.26537 10.0752 8.26537 10.0752C8.26537 10.0752 8.07862 10.0622 7.78906 10.0493V12.3229C8.05869 12.4175 9.20906 12.7313 9.49888 12.8967C9.7965 13.067 10.0092 15.633 10.5479 16.7393C11.0865 17.8452 10.633 19.4898 10.633 19.4898H16.7722C16.7722 19.4898 16.7298 17.76 16.8149 17.051C16.9001 16.342 17.5805 14.4706 17.8074 13.9036C18.034 13.3364 18.034 13.1095 18.034 13.1095C18.034 13.1095 19.6306 12.604 20.4265 12.3145V10.0677H20.4262Z" fill="#FEFEFE"/>
<path d="M9.15174 12.7522C9.30243 12.8056 9.42656 12.8556 9.49843 12.8965C9.79606 13.0668 10.0088 15.6328 10.5474 16.7391C10.8145 17.287 10.8379 17.9674 10.7931 18.5144C10.8129 18.2774 10.8679 17.5506 10.8274 17.117C10.7787 16.5931 10.4862 15.8379 10.3035 15.1312C10.1208 14.4245 9.93799 12.9869 9.76743 12.8042C9.59737 12.6221 9.15455 12.7517 9.15137 12.7526L9.15174 12.7522Z" fill="#EEF3F7"/>
<path d="M28.1251 8.71582C29.3474 8.71582 30.3384 9.70682 30.3384 10.9291C30.3384 12.1513 29.3474 13.1421 28.1251 13.1421C26.9029 13.1421 25.9121 12.1513 25.9121 10.9291C25.9121 9.70682 26.9029 8.71582 28.1251 8.71582Z" fill="#FEFEFE"/>
<path d="M28.1686 8.80273C29.367 8.80273 30.3383 9.77417 30.3383 10.9724C30.3383 12.1705 29.3669 13.1417 28.1686 13.1417C26.9704 13.1417 25.999 12.1703 25.999 10.9724C25.999 9.77417 26.9703 8.80273 28.1686 8.80273Z" fill="#EEF3F7"/>
<path d="M28.1683 9.27979C29.1031 9.27979 29.8608 10.0375 29.8608 10.9723C29.8608 11.907 29.1031 12.6648 28.1683 12.6648C27.2333 12.6648 26.4756 11.907 26.4756 10.9723C26.4756 10.0375 27.2333 9.27979 28.1683 9.27979Z" fill="#D9DADA"/>
<path d="M28.1687 10.5186C28.4192 10.5186 28.6225 10.7218 28.6225 10.9724C28.6225 11.2229 28.4192 11.4262 28.1687 11.4262C27.9181 11.4262 27.7148 11.2229 27.7148 10.9724C27.7148 10.7218 27.9178 10.5186 28.1687 10.5186Z" fill="#C8C8C8"/>
<path d="M28.124 10.5156C28.3538 10.5156 28.5403 10.7021 28.5403 10.9319C28.5403 11.1619 28.3538 11.3481 28.124 11.3481C27.8942 11.3481 27.708 11.1619 27.708 10.9319C27.708 10.7022 27.8942 10.5156 28.124 10.5156Z" fill="#FEFEFE"/>
<path d="M2.71527 10.5093H7.0032C7.0647 10.5093 7.1152 10.5595 7.1152 10.621V10.9732C7.1152 11.0347 7.06502 11.085 7.0032 11.085H2.71527C2.65377 11.085 2.60352 11.0348 2.60352 10.9732V10.621C2.60358 10.5595 2.65383 10.5093 2.71527 10.5093Z" fill="#FEFEFE"/>
<path d="M3.84144 10.13H3.84175C3.98638 10.13 4.10506 10.2345 4.10506 10.3627V11.604C4.10506 11.7319 3.98644 11.8364 3.84175 11.8364H3.84144C3.69656 11.8364 3.57812 11.7316 3.57812 11.604V10.3627C3.57819 10.2348 3.6965 10.13 3.84144 10.13ZM5.70313 10.1069H5.70344C5.84831 10.1069 5.96675 10.2117 5.96675 10.3396V11.5809C5.96675 11.7085 5.84781 11.8133 5.70344 11.8133H5.70313C5.5585 11.8133 5.43981 11.7085 5.43981 11.5809V10.3396C5.43981 10.2117 5.55819 10.1069 5.70313 10.1069ZM5.08938 10.13C5.23425 10.13 5.35269 10.2348 5.35269 10.3627V11.604C5.35269 11.7316 5.23406 11.8364 5.08938 11.8364C4.9445 11.8364 4.82581 11.7316 4.82581 11.604V10.3627C4.82581 10.2348 4.94425 10.13 5.08938 10.13ZM4.45575 10.13H4.45606C4.60069 10.13 4.71963 10.2348 4.71963 10.3627V11.604C4.71963 11.7319 4.601 11.8364 4.45606 11.8364H4.45575C4.31113 11.8364 4.19244 11.7316 4.19244 11.604V10.3627C4.1925 10.2348 4.31081 10.13 4.45575 10.13Z" fill="#FFE1BA"/>
<path d="M3.35742 8.83203H2.87448C2.79623 8.83203 2.73242 8.89584 2.73242 8.97409V12.6212C2.73242 12.6995 2.79623 12.7633 2.87448 12.7633H3.35742C3.43567 12.7633 3.49948 12.6995 3.49948 12.6212V8.97409C3.49948 8.89584 3.43567 8.83203 3.35742 8.83203Z" fill="#EEF3F7"/>
<path d="M2.78842 8.86133C2.75436 8.88733 2.73242 8.92833 2.73242 8.97414V12.6213C2.73242 12.6672 2.75461 12.7081 2.78842 12.7341C2.82248 12.7081 2.84442 12.6671 2.84442 12.6213V8.97414C2.84442 8.92827 2.82255 8.88727 2.78842 8.86133Z" fill="#FEFEFE"/>
<path d="M2.73242 12.5747V12.6206C2.73242 12.6989 2.79648 12.763 2.8748 12.763H3.35773C3.43598 12.763 3.4998 12.699 3.4998 12.6206V12.5747H2.73273H2.73242Z" fill="#D9DADA"/>
<path d="M4.73617 11.8789H5.64405C5.7838 11.8789 5.8978 11.9929 5.8978 12.1327C5.8978 12.2721 5.7838 12.3864 5.64405 12.3864H4.73617C4.59673 12.3864 4.48242 12.2724 4.48242 12.1327C4.48242 11.9932 4.59642 11.8789 4.73617 11.8789Z" fill="#FFE1BA"/>
<path d="M4.72793 11.9775H4.87143V12.2873H4.72793C4.6428 12.2873 4.57324 12.2174 4.57324 12.1323C4.57324 12.0469 4.6428 11.9775 4.72793 11.9775Z" fill="#FEFEFE"/>
<path d="M6.86621 8.83203H6.38327C6.30502 8.83203 6.24121 8.89584 6.24121 8.97409V12.6212C6.24121 12.6995 6.30502 12.7633 6.38327 12.7633H6.86621C6.94446 12.7633 7.00827 12.6995 7.00827 12.6212V8.97409C7.00827 8.89584 6.94415 8.83203 6.86621 8.83203Z" fill="#EEF3F7"/>
<path d="M6.29721 8.86133C6.26315 8.88733 6.24121 8.92833 6.24121 8.97414V12.6213C6.24121 12.6672 6.2634 12.7081 6.29721 12.7341C6.33096 12.7081 6.35321 12.6671 6.35321 12.6213V8.97414C6.35321 8.92827 6.33102 8.88727 6.29721 8.86133Z" fill="#FEFEFE"/>
<path d="M6.24121 12.5747V12.6206C6.24121 12.6989 6.30527 12.763 6.38359 12.763H6.86652C6.94477 12.763 7.00859 12.699 7.00859 12.6206V12.5747H6.24152H6.24121Z" fill="#D9DADA"/>
<path d="M11.7844 6.01612C11.7844 6.01612 11.6938 5.81693 11.4501 5.91568C11.2068 6.01443 11.4611 6.99906 11.5544 7.1365C11.6473 7.27393 11.7971 7.18668 11.8517 7.18125C11.9291 7.76843 11.936 8.17281 12.1713 8.42018C12.3939 8.65462 12.9034 9.13237 13.1719 9.29893C13.3537 9.33706 13.4894 9.35981 13.617 9.36681C13.7445 9.36018 13.8803 9.33737 14.0618 9.29893C14.3303 9.13237 14.8398 8.65462 15.0624 8.42018C15.2974 8.17281 15.3042 7.76806 15.3819 7.18125C15.4365 7.18675 15.586 7.27393 15.6793 7.1365C15.7725 6.99906 16.0269 6.01443 15.7832 5.91568C15.5399 5.81693 15.4492 6.01612 15.4492 6.01612C15.4492 6.01612 15.69 5.24306 15.2619 4.48181C14.9686 3.95987 14.3 3.68943 13.617 3.66943C12.934 3.68931 12.2652 3.95987 11.9719 4.48181C11.544 5.243 11.7848 6.01612 11.7848 6.01612H11.7844Z" fill="#FED298"/>
<path d="M15.239 6.24614L15.4088 6.24033L15.4633 6.04664L15.6233 5.88702C15.729 5.09202 15.7602 3.85477 14.9708 3.89052C14.9708 3.89052 14.8995 2.98814 13.4764 3.16508C12.0529 3.34202 11.4098 4.26089 11.4866 5.02764C11.5634 5.79408 11.5322 5.88702 11.5322 5.88702L11.6922 6.04664L11.7161 6.26689L11.8558 6.25821C11.8558 6.25821 11.8997 5.96314 11.9433 5.83358C11.9872 5.70396 12.01 4.69221 12.01 4.69221C12.1508 4.51183 13.121 4.79152 13.4947 4.78314C13.8465 4.77533 14.9288 4.46708 14.9672 4.56321C15.1482 4.84033 15.2388 6.24583 15.2388 6.24583L15.239 6.24614Z" fill="#666666"/>
<path d="M10.6701 19.4893C10.0988 21.4858 9.92381 21.3763 9.77344 24.9261L13.4817 25.0144L13.59 24.4968H13.8648L13.9728 25.0144L17.6811 24.9261C17.5307 21.3763 17.3555 21.4858 16.7845 19.4893H13.7275H10.6705H10.6701ZM13.7095 23.9224L13.7268 23.839L13.7441 23.9224H13.7092H13.7095Z" fill="#0F7986"/>
<path d="M9.77308 24.9263C9.77308 24.9263 9.6299 27.8973 9.78521 28.6496C9.94077 29.4018 9.95471 29.4157 9.95471 29.4157C9.95471 29.4157 9.88396 30.2514 10.0535 30.6971C10.076 30.756 10.0948 30.8181 10.1109 30.881C10.7905 31.1501 11.4931 31.3732 12.2145 31.5481C12.3799 31.1879 12.5998 30.6495 12.6128 30.3126C12.6735 28.7648 13.5531 27.4998 13.4811 25.0146L9.77283 24.9263L9.77308 24.9263Z" fill="#FED298"/>
<path d="M12.215 31.5481C12.3801 31.1879 12.6001 30.6495 12.6134 30.3126C12.674 28.7648 13.5536 27.4998 13.4817 25.0146C13.4817 25.0146 12.6076 29.3543 12.3827 29.7102C12.1578 30.0661 12.2265 30.6591 12.0207 30.8964C11.8738 31.0659 11.8732 31.2786 11.9098 31.4715C12.0111 31.4983 12.1131 31.5237 12.2152 31.5483L12.215 31.5481Z" fill="#E8B57F"/>
<path d="M17.6803 24.9265C17.6803 24.9265 17.8238 27.8978 17.6682 28.6498C17.5126 29.4021 17.4987 29.416 17.4987 29.416C17.4987 29.416 17.5695 30.2516 17.3997 30.6974C17.2669 31.0461 17.2554 31.6881 17.2565 31.9511C16.8417 31.9835 16.4225 31.9999 15.9996 31.9999C15.7728 31.9999 15.5476 31.9941 15.323 31.9846C15.1616 31.5614 14.8559 30.7115 14.8403 30.3126C14.78 28.7647 13.9 27.4998 13.972 25.0146L17.6803 24.9263L17.6803 24.9265Z" fill="#FED298"/>
<path d="M15.3044 31.9838C15.1396 31.5736 14.8552 30.6968 14.8403 30.3126C14.78 28.7648 13.9 27.4998 13.972 25.0146C13.972 25.0146 14.8461 29.3543 15.071 29.7102C15.2958 30.0661 15.2271 30.6593 15.433 30.8966C15.6345 31.1288 15.5346 31.8296 15.4918 31.9913C15.4292 31.9893 15.3668 31.9867 15.3045 31.9841L15.3044 31.9838Z" fill="#E8B57F"/>
<path d="M20.4265 12.3143C20.4265 12.3143 18.29 12.883 18.1012 12.8523C17.9124 12.8217 17.7357 12.572 17.7357 12.572C17.7357 12.572 17.7054 13.4005 17.5834 13.8148C17.4615 14.229 16.5661 16.3488 16.627 17.3112C16.6879 18.2737 16.7719 19.4893 16.7719 19.4893C16.7719 19.4893 16.7294 17.7595 16.8146 17.0505C16.8998 16.3415 17.5802 14.4701 17.807 13.9031C18.0337 13.3358 18.0337 13.109 18.0337 13.109C18.0337 13.109 19.6303 12.6035 20.4262 12.314L20.4265 12.3143Z" fill="#EEF3F7"/>
</g>
<defs>
<clipPath id="clip0_403_116">
<rect width="32" height="32" fill="white"/>
</clipPath>
</defs>
</svg>
