<svg width="32" height="32" viewBox="0 0 32 32" fill="none" xmlns="http://www.w3.org/2000/svg">
<g clip-path="url(#clip0_403_44)">
<path d="M16.0002 0C7.16353 0 0 7.16288 0 16.0003C0 24.8362 7.16353 31.9997 16.0002 31.9997C24.8365 31.9997 32 24.8362 32 16.0003C32 7.16288 24.8365 0 16.0002 0Z" fill="#4ABC96"/>
<path d="M15.9999 14.1621C9.51708 14.1621 4.26172 16.3709 4.26172 19.0961C4.26172 21.8208 9.51708 24.0299 15.9999 24.0299C22.4825 24.0299 27.738 21.8208 27.738 19.0961C27.738 16.371 22.4825 14.1621 15.9999 14.1621Z" fill="#EAEFEF"/>
<path d="M18.317 10.4102C18.318 10.4307 18.3191 10.451 18.3191 10.4717C18.3191 11.4245 17.2806 12.197 15.9999 12.197C14.719 12.197 13.6808 11.4245 13.6808 10.4717C13.6808 10.451 13.6819 10.4307 13.6828 10.4102C8.30991 10.8623 4.26172 12.8562 4.26172 15.2479C4.26172 17.9727 9.51708 20.1818 15.9999 20.1818C22.4825 20.1818 27.738 17.9727 27.738 15.2479C27.738 12.8562 23.6897 10.8623 18.317 10.4102Z" fill="#EAEFEF"/>
<path d="M27.7202 14.9976H4.27734V19.0337H27.7202V14.9976Z" fill="#EAEFEF"/>
<path d="M18.1882 11.0439C17.8707 11.7155 17.0113 12.1971 16.0001 12.1971C14.9888 12.1971 14.1293 11.7154 13.812 11.0439C9.21012 11.4652 5.76367 13.1871 5.76367 15.248C5.76367 17.6241 10.3467 19.5505 16.0001 19.5505C21.6534 19.5505 26.2365 17.624 26.2365 15.248C26.2365 13.1871 22.79 11.4652 18.1882 11.0439Z" fill="#D7DBDB"/>
<path d="M15.9998 21.2329C17.2806 21.2329 18.3189 20.4604 18.3189 19.5075C18.3189 18.5547 17.2806 17.7822 15.9998 17.7822C14.719 17.7822 13.6807 18.5547 13.6807 19.5075C13.6807 20.4604 14.719 21.2329 15.9998 21.2329Z" fill="#CCCCCC"/>
<path d="M15.979 13.542C11.4019 13.542 7.53724 14.8441 6.30176 16.6287C7.67055 18.3276 11.4955 19.5506 15.9998 19.5506C20.4802 19.5506 24.2878 18.3405 25.6751 16.6556C24.4602 14.8573 20.5793 13.542 15.979 13.542Z" fill="#CCCCCC"/>
<path d="M17.3634 12.8032L16.7395 11.2232C16.3709 11.1775 14.8577 11.1785 14.4893 11.2246L14.9149 12.9384L15.7564 14.6051L14.8782 16.2608L16.9268 16.2583L18.1472 13.6914L17.3634 12.8032Z" fill="#EFEEE4"/>
<path d="M16.7033 12.4692L16.7397 11.2231L16.3418 12.6586L17.2711 13.0544L16.7033 12.4692Z" fill="#E2E1D9"/>
<path d="M16.5654 15.7222L16.9268 16.2585L17.1935 15.6963L16.5654 15.7222Z" fill="#E2E1D9"/>
<path d="M17.022 13.8578L15.672 13.0969L15.6473 12.0169C15.6473 12.0169 14.6622 11.2029 14.4893 11.2245L15.3774 12.0905L14.9149 12.9383L16.6293 14.226L14.8782 16.2607L17.1202 14.3732L18.1472 13.6913L17.022 13.8578Z" fill="#E2E1D9"/>
<path d="M16.7377 5.08643H14.4873V11.2632H16.7377V5.08643Z" fill="#E79E2F"/>
<path d="M14.4844 5.08691L14.4886 11.2637L16.7391 11.2622L14.4844 5.08691Z" fill="#D88D2B"/>
<path d="M14.4844 5.08691L14.4886 11.2637L15.4014 11.2622L14.4844 5.08691Z" fill="#CC8127"/>
<path d="M15.6111 5.42681C16.2317 5.42681 16.7348 5.27432 16.7348 5.08621C16.7348 4.8981 16.2317 4.74561 15.6111 4.74561C14.9904 4.74561 14.4873 4.8981 14.4873 5.08621C14.4873 5.27432 14.9904 5.42681 15.6111 5.42681Z" fill="#EDD48E"/>
<path d="M15.6114 5.3039C16.0085 5.3039 16.3303 5.20635 16.3303 5.08603C16.3303 4.96571 16.0085 4.86816 15.6114 4.86816C15.2144 4.86816 14.8926 4.96571 14.8926 5.08603C14.8926 5.20635 15.2144 5.3039 15.6114 5.3039Z" fill="#E8CB70"/>
<path d="M16.4823 11.0042C16.5524 11.0042 16.6092 10.9474 16.6092 10.8774C16.6092 10.8073 16.5524 10.7505 16.4823 10.7505C16.4123 10.7505 16.3555 10.8073 16.3555 10.8774C16.3555 10.9474 16.4123 11.0042 16.4823 11.0042Z" fill="#E5AA5C"/>
<path d="M15.8925 11.0042C15.9626 11.0042 16.0194 10.9474 16.0194 10.8774C16.0194 10.8073 15.9626 10.7505 15.8925 10.7505C15.8224 10.7505 15.7656 10.8073 15.7656 10.8774C15.7656 10.9474 15.8224 11.0042 15.8925 11.0042Z" fill="#E5AA5C"/>
<path d="M15.3026 11.0047C15.3727 11.0047 15.4295 10.9479 15.4295 10.8778C15.4295 10.8078 15.3727 10.751 15.3026 10.751C15.2326 10.751 15.1758 10.8078 15.1758 10.8778C15.1758 10.9479 15.2326 11.0047 15.3026 11.0047Z" fill="#E5AA5C"/>
<path d="M14.7128 11.0052C14.7829 11.0052 14.8397 10.9484 14.8397 10.8783C14.8397 10.8083 14.7829 10.7515 14.7128 10.7515C14.6427 10.7515 14.5859 10.8083 14.5859 10.8783C14.5859 10.9484 14.6427 11.0052 14.7128 11.0052Z" fill="#E5AA5C"/>
<path d="M16.4814 9.91095C16.5514 9.91095 16.6082 9.85415 16.6082 9.78409C16.6082 9.71402 16.5514 9.65723 16.4814 9.65723C16.4113 9.65723 16.3545 9.71402 16.3545 9.78409C16.3545 9.85415 16.4113 9.91095 16.4814 9.91095Z" fill="#E5AA5C"/>
<path d="M15.8915 9.91144C15.9616 9.91144 16.0184 9.85464 16.0184 9.78458C16.0184 9.71451 15.9616 9.65771 15.8915 9.65771C15.8214 9.65771 15.7646 9.71451 15.7646 9.78458C15.7646 9.85464 15.8214 9.91144 15.8915 9.91144Z" fill="#E5AA5C"/>
<path d="M15.3017 9.91193C15.3717 9.91193 15.4285 9.85513 15.4285 9.78507C15.4285 9.715 15.3717 9.6582 15.3017 9.6582C15.2316 9.6582 15.1748 9.715 15.1748 9.78507C15.1748 9.85513 15.2316 9.91193 15.3017 9.91193Z" fill="#E5AA5C"/>
<path d="M14.7118 9.91193C14.7819 9.91193 14.8387 9.85513 14.8387 9.78507C14.8387 9.715 14.7819 9.6582 14.7118 9.6582C14.6418 9.6582 14.585 9.715 14.585 9.78507C14.585 9.85513 14.6418 9.91193 14.7118 9.91193Z" fill="#E5AA5C"/>
<path d="M16.4814 8.81818C16.5514 8.81818 16.6082 8.76138 16.6082 8.69132C16.6082 8.62125 16.5514 8.56445 16.4814 8.56445C16.4113 8.56445 16.3545 8.62125 16.3545 8.69132C16.3545 8.76138 16.4113 8.81818 16.4814 8.81818Z" fill="#E5AA5C"/>
<path d="M15.8905 8.81916C15.9606 8.81916 16.0174 8.76236 16.0174 8.69229C16.0174 8.62223 15.9606 8.56543 15.8905 8.56543C15.8205 8.56543 15.7637 8.62223 15.7637 8.69229C15.7637 8.76236 15.8205 8.81916 15.8905 8.81916Z" fill="#E5AA5C"/>
<path d="M15.3017 8.81964C15.3717 8.81964 15.4285 8.76284 15.4285 8.69278C15.4285 8.62272 15.3717 8.56592 15.3017 8.56592C15.2316 8.56592 15.1748 8.62272 15.1748 8.69278C15.1748 8.76284 15.2316 8.81964 15.3017 8.81964Z" fill="#E5AA5C"/>
<path d="M14.7108 8.81964C14.7809 8.81964 14.8377 8.76284 14.8377 8.69278C14.8377 8.62272 14.7809 8.56592 14.7108 8.56592C14.6408 8.56592 14.584 8.62272 14.584 8.69278C14.584 8.76284 14.6408 8.81964 14.7108 8.81964Z" fill="#E5AA5C"/>
<path d="M16.1944 10.2114C16.1243 10.2114 16.0674 10.2682 16.0674 10.3384C16.0676 10.4083 16.1245 10.4651 16.1945 10.465C16.2645 10.465 16.3214 10.4082 16.3214 10.3381C16.3212 10.2681 16.2644 10.2113 16.1944 10.2114Z" fill="#E5AA5C"/>
<path d="M15.6034 10.4656C15.6735 10.4656 15.7303 10.4088 15.7303 10.3388C15.7303 10.2687 15.6735 10.2119 15.6034 10.2119C15.5334 10.2119 15.4766 10.2687 15.4766 10.3388C15.4766 10.4088 15.5334 10.4656 15.6034 10.4656Z" fill="#E5AA5C"/>
<path d="M15.0146 10.4656C15.0846 10.4656 15.1414 10.4088 15.1414 10.3388C15.1414 10.2687 15.0846 10.2119 15.0146 10.2119C14.9445 10.2119 14.8877 10.2687 14.8877 10.3388C14.8877 10.4088 14.9445 10.4656 15.0146 10.4656Z" fill="#E5AA5C"/>
<path d="M16.1933 9.37238C16.2633 9.37238 16.3201 9.31558 16.3201 9.24552C16.3201 9.17545 16.2633 9.11865 16.1933 9.11865C16.1232 9.11865 16.0664 9.17545 16.0664 9.24552C16.0664 9.31558 16.1232 9.37238 16.1933 9.37238Z" fill="#E5AA5C"/>
<path d="M15.6034 9.37287C15.6735 9.37287 15.7303 9.31607 15.7303 9.246C15.7303 9.17594 15.6735 9.11914 15.6034 9.11914C15.5334 9.11914 15.4766 9.17594 15.4766 9.246C15.4766 9.31607 15.5334 9.37287 15.6034 9.37287Z" fill="#E5AA5C"/>
<path d="M15.0136 9.37287C15.0836 9.37287 15.1404 9.31607 15.1404 9.246C15.1404 9.17594 15.0836 9.11914 15.0136 9.11914C14.9435 9.11914 14.8867 9.17594 14.8867 9.246C14.8867 9.31607 14.9435 9.37287 15.0136 9.37287Z" fill="#E5AA5C"/>
<path d="M16.4803 7.48633C16.4103 7.48633 16.3535 7.54321 16.3535 7.61326C16.3536 7.6833 16.4105 7.74005 16.4806 7.73993C16.5505 7.73993 16.6074 7.6831 16.6073 7.613C16.6072 7.54296 16.5504 7.48626 16.4803 7.48633Z" fill="#E5AA5C"/>
<path d="M15.8905 7.48682C15.8205 7.48682 15.7637 7.5437 15.7637 7.61374C15.7639 7.68372 15.8206 7.74054 15.8907 7.74054C15.9607 7.74048 16.0175 7.68359 16.0175 7.61349C16.0173 7.54351 15.9606 7.48675 15.8905 7.48682Z" fill="#E5AA5C"/>
<path d="M15.3006 7.74041C15.3707 7.74041 15.4274 7.68364 15.4274 7.61361C15.4274 7.54359 15.3707 7.48682 15.3006 7.48682C15.2306 7.48682 15.1738 7.54359 15.1738 7.61361C15.1738 7.68364 15.2306 7.74041 15.3006 7.74041Z" fill="#E5AA5C"/>
<path d="M14.7108 7.48779C14.6408 7.48779 14.584 7.54468 14.584 7.61478C14.584 7.68476 14.6409 7.74152 14.7111 7.74152C14.781 7.74139 14.8377 7.68463 14.8377 7.61459C14.8377 7.54455 14.7809 7.48773 14.7108 7.48779Z" fill="#E5AA5C"/>
<path d="M16.4794 6.64728C16.5495 6.64728 16.6063 6.59048 16.6063 6.52042C16.6063 6.45035 16.5495 6.39355 16.4794 6.39355C16.4093 6.39355 16.3525 6.45035 16.3525 6.52042C16.3525 6.59048 16.4093 6.64728 16.4794 6.64728Z" fill="#E5AA5C"/>
<path d="M15.8896 6.64826C15.9596 6.64826 16.0164 6.59146 16.0164 6.52139C16.0164 6.45133 15.9596 6.39453 15.8896 6.39453C15.8195 6.39453 15.7627 6.45133 15.7627 6.52139C15.7627 6.59146 15.8195 6.64826 15.8896 6.64826Z" fill="#E5AA5C"/>
<path d="M15.2997 6.64826C15.3698 6.64826 15.4266 6.59146 15.4266 6.52139C15.4266 6.45133 15.3698 6.39453 15.2997 6.39453C15.2296 6.39453 15.1729 6.45133 15.1729 6.52139C15.1729 6.59146 15.2296 6.64826 15.2997 6.64826Z" fill="#E5AA5C"/>
<path d="M14.7099 6.64875C14.7799 6.64875 14.8367 6.59195 14.8367 6.52188C14.8367 6.45182 14.7799 6.39502 14.7099 6.39502C14.6398 6.39502 14.583 6.45182 14.583 6.52188C14.583 6.59195 14.6398 6.64875 14.7099 6.64875Z" fill="#E5AA5C"/>
<path d="M16.1923 8.29376C16.2624 8.29376 16.3192 8.23697 16.3192 8.1669C16.3192 8.09684 16.2624 8.04004 16.1923 8.04004C16.1222 8.04004 16.0654 8.09684 16.0654 8.1669C16.0654 8.23697 16.1222 8.29376 16.1923 8.29376Z" fill="#E5AA5C"/>
<path d="M15.6024 8.29376C15.6725 8.29376 15.7293 8.23697 15.7293 8.1669C15.7293 8.09684 15.6725 8.04004 15.6024 8.04004C15.5324 8.04004 15.4756 8.09684 15.4756 8.1669C15.4756 8.23697 15.5324 8.29376 15.6024 8.29376Z" fill="#E5AA5C"/>
<path d="M15.0126 8.29474C15.0827 8.29474 15.1395 8.23794 15.1395 8.16788C15.1395 8.09781 15.0827 8.04102 15.0126 8.04102C14.9425 8.04102 14.8857 8.09781 14.8857 8.16788C14.8857 8.23794 14.9425 8.29474 15.0126 8.29474Z" fill="#E5AA5C"/>
<path d="M16.1923 7.20148C16.2624 7.20148 16.3192 7.14468 16.3192 7.07462C16.3192 7.00455 16.2624 6.94775 16.1923 6.94775C16.1222 6.94775 16.0654 7.00455 16.0654 7.07462C16.0654 7.14468 16.1222 7.20148 16.1923 7.20148Z" fill="#E5AA5C"/>
<path d="M15.6015 7.20148C15.6715 7.20148 15.7283 7.14468 15.7283 7.07462C15.7283 7.00455 15.6715 6.94775 15.6015 6.94775C15.5314 6.94775 15.4746 7.00455 15.4746 7.07462C15.4746 7.14468 15.5314 7.20148 15.6015 7.20148Z" fill="#E5AA5C"/>
<path d="M15.0126 7.20197C15.0827 7.20197 15.1395 7.14517 15.1395 7.0751C15.1395 7.00504 15.0827 6.94824 15.0126 6.94824C14.9425 6.94824 14.8857 7.00504 14.8857 7.0751C14.8857 7.14517 14.9425 7.20197 15.0126 7.20197Z" fill="#E5AA5C"/>
<path d="M16.1911 5.87549C16.1211 5.87549 16.0643 5.93244 16.0645 6.00242C16.0645 6.07259 16.1213 6.12921 16.1913 6.12921C16.2614 6.12915 16.3181 6.07226 16.3181 6.00222C16.318 5.93224 16.2614 5.87542 16.1911 5.87549Z" fill="#E5AA5C"/>
<path d="M15.6015 6.1297C15.6715 6.1297 15.7283 6.0729 15.7283 6.00284C15.7283 5.93278 15.6715 5.87598 15.6015 5.87598C15.5314 5.87598 15.4746 5.93278 15.4746 6.00284C15.4746 6.0729 15.5314 6.1297 15.6015 6.1297Z" fill="#E5AA5C"/>
<path d="M15.0116 6.13019C15.0817 6.13019 15.1385 6.07339 15.1385 6.00333C15.1385 5.93326 15.0817 5.87646 15.0116 5.87646C14.9416 5.87646 14.8848 5.93326 14.8848 6.00333C14.8848 6.07339 14.9416 6.13019 15.0116 6.13019Z" fill="#E5AA5C"/>
<path d="M14.8574 16.2583V16.6021L15.0074 16.819L15.2578 16.7523L15.4915 16.9085L15.9586 16.7801L16.1923 16.5242L16.6594 16.8579L16.9264 16.9085V16.2583H14.8574Z" fill="#9FA09F"/>
<path d="M15.997 16.2583H15.6444L14.9395 16.5884L15.0837 16.7966L15.8527 16.5884L15.997 16.7592L16.2212 16.5135L16.6696 16.834L16.926 16.8826L15.997 16.2583Z" fill="#888988"/>
<path d="M17.7266 17.3766L17.3794 17.2407L17.1885 17.3302L17.2585 18.0786L17.6056 18.1288L17.9337 17.8087L17.7266 17.3766Z" fill="#9FA09F"/>
<path d="M17.6696 17.3989L17.1885 17.3306L16.9814 17.8381L17.2585 18.079L17.6977 17.9373L17.9337 17.8091L17.6696 17.3989Z" fill="#888988"/>
<path d="M13.7898 17.7008L13.5756 17.6172L13.458 17.6725L13.5012 18.1337L13.7152 18.1646L13.9173 17.9673L13.7898 17.7008Z" fill="#9FA09F"/>
<path d="M13.7544 17.7143L13.4577 17.6724L13.3301 17.9852L13.5008 18.1336L13.7716 18.0463L13.917 17.9672L13.7544 17.7143Z" fill="#888988"/>
<path d="M14.6225 17.7922L14.3174 17.6729L14.1494 17.7515L14.2111 18.4096L14.5163 18.4536L14.8046 18.1723L14.6225 17.7922Z" fill="#9FA09F"/>
<path d="M14.573 17.8121L14.1498 17.752L13.9678 18.1982L14.2115 18.4101L14.5976 18.2855L14.8051 18.1727L14.573 17.8121Z" fill="#888988"/>
<path d="M15.2311 17.5106L15.0171 17.4268L14.8994 17.482L14.9426 17.9434L15.1566 17.9743L15.3587 17.777L15.2311 17.5106Z" fill="#9FA09F"/>
<path d="M15.196 17.524L14.8994 17.4819L14.7715 17.7949L14.9425 17.9433L15.2132 17.8559L15.3587 17.7769L15.196 17.524Z" fill="#888988"/>
<path d="M15.6778 18.0938L15.3646 17.9712L15.1924 18.0521L15.2555 18.7274L15.5688 18.7725L15.8647 18.4838L15.6778 18.0938Z" fill="#9FA09F"/>
<path d="M15.626 18.1138L15.1919 18.0522L15.0049 18.5101L15.2549 18.7276L15.6514 18.5998L15.8642 18.484L15.626 18.1138Z" fill="#888988"/>
<path d="M16.281 17.6658L16.0669 17.582L15.9492 17.6374L15.9924 18.0987L16.2064 18.1295L16.4086 17.9323L16.281 17.6658Z" fill="#9FA09F"/>
<path d="M16.2466 17.6798L15.95 17.6377L15.8223 17.9505L15.9932 18.099L16.2639 18.0117L16.4094 17.9326L16.2466 17.6798Z" fill="#888988"/>
<path d="M16.9381 18.1106L16.7141 18.0229L16.5908 18.0807L16.636 18.5639L16.8603 18.5964L17.072 18.3896L16.9381 18.1106Z" fill="#9FA09F"/>
<path d="M16.9015 18.1252L16.5908 18.0811L16.457 18.4087L16.636 18.5643L16.9197 18.4728L17.072 18.3899L16.9015 18.1252Z" fill="#888988"/>
</g>
<defs>
<clipPath id="clip0_403_44">
<rect width="32" height="32" fill="white"/>
</clipPath>
</defs>
</svg>
