<svg width="33" height="33" viewBox="0 0 33 33" fill="none" xmlns="http://www.w3.org/2000/svg">
<path d="M32.3455 5.55263V8.92105H27.2928V13.9737H23.9244V8.92105H18.8718V5.55263H23.9244V0.5H27.2928V5.55263H32.3455ZM18.0297 17.3421C19.4242 17.3421 20.556 16.2103 20.556 14.8158C20.556 13.4213 19.4242 12.2895 18.0297 12.2895C16.6351 12.2895 15.5034 13.4213 15.5034 14.8158C15.5034 16.2103 16.6351 17.3421 18.0297 17.3421ZM23.9244 22.7888L23.0604 21.8288C21.7231 20.3383 19.3888 20.3383 18.0482 21.8288L16.945 23.0583L8.76651 13.9737L3.71388 19.5872V8.92105H15.5034V5.55263H3.71388C1.85283 5.55263 0.345459 7.06 0.345459 8.92105V29.1316C0.345459 30.9926 1.85283 32.5 3.71388 32.5H23.9244C25.7855 32.5 27.2928 30.9926 27.2928 29.1316V17.3421H23.9244V22.7888Z" fill="black"/>
</svg>
