<svg width="18" height="15" viewBox="0 0 18 15" fill="none" xmlns="http://www.w3.org/2000/svg">
<path d="M13.9074 8.86915C13.8404 9.41735 14.2304 9.91612 14.7786 9.98319C15.3268 10.0503 15.8255 9.66023 15.8926 9.11203L13.9074 8.86915ZM3.92672 5.54135C4.96904 2.97074 7.69591 1.85653 10.0894 2.37209C11.267 2.62574 12.3233 3.26988 13.0326 4.3001C13.7391 5.3262 14.1583 6.81896 13.9074 8.86915L15.8926 9.11203C16.1918 6.66691 15.7109 4.6632 14.6799 3.16587C13.6517 1.67265 12.133 0.766402 10.5106 0.416933C7.30409 -0.273747 3.53096 1.19484 2.07328 4.78982L3.92672 5.54135Z" fill="#1e1e1e"/>
<path d="M13.6 13.3L14.4 12.7L13.2 11.1L12.4 11.7L13.6 13.3ZM12.4 11.7C10.6778 12.9917 8.54791 13.1901 6.87638 12.511C5.24249 11.8473 4 10.3314 4 7.99999L2 7.99999C2 11.1686 3.75751 13.4027 6.12362 14.364C8.45209 15.3099 11.3222 15.0084 13.6 13.3L12.4 11.7Z" fill="#1e1e1e"/>
<path d="M5.72051 8.26817L1.3952 10.1051L1.91651 5.50919L5.72051 8.26817Z" fill="#1e1e1e"/>
<path d="M14.6704 11.4732L12.387 7.36608L17.0123 7.39917L14.6704 11.4732Z" fill="#1e1e1e"/>
</svg>
