<svg width="13" height="13" viewBox="0 0 13 13" fill="none" xmlns="http://www.w3.org/2000/svg">
<path d="M0.436402 7.45C0.612019 7.66085 0.831776 7.83058 1.08016 7.94721C1.32854 8.06384 1.5995 8.12453 1.8739 8.125L4.7239 8.125L4.3739 9.01875C4.22832 9.41008 4.17984 9.83088 4.23261 10.2451C4.28539 10.6592 4.43785 11.0544 4.67691 11.3967C4.91597 11.739 5.23451 12.0183 5.60519 12.2104C5.97587 12.4026 6.38763 12.5019 6.80515 12.5C6.92538 12.4998 7.04298 12.4648 7.14386 12.3994C7.24474 12.334 7.32461 12.2409 7.3739 12.1313L9.15515 8.125L10.6239 8.125C11.1212 8.125 11.5981 7.92746 11.9497 7.57583C12.3014 7.2242 12.4989 6.74728 12.4989 6.25L12.4989 1.875C12.4989 1.37772 12.3014 0.900808 11.9497 0.549177C11.5981 0.197546 11.1212 2.98147e-06 10.6239 3.02494e-06L2.66765 3.7205e-06C2.22902 0.000149671 1.80432 0.154072 1.46745 0.434989C1.13058 0.715906 0.902855 1.10604 0.823901 1.5375L0.0301517 5.9125C-0.0189424 6.18289 -0.0080009 6.46077 0.0622019 6.72646C0.132405 6.99215 0.260152 7.23916 0.436402 7.45ZM9.3739 1.25L10.6239 1.25C10.7897 1.25 10.9486 1.31585 11.0658 1.43306C11.1831 1.55027 11.2489 1.70924 11.2489 1.875L11.2489 6.25C11.2489 6.41576 11.1831 6.57473 11.0658 6.69194C10.9486 6.80915 10.7897 6.875 10.6239 6.875L9.3739 6.875L9.3739 1.25ZM1.2489 6.1375L2.04265 1.7625C2.06927 1.61691 2.14671 1.48548 2.26116 1.39163C2.37561 1.29778 2.51966 1.24759 2.66765 1.25L8.1239 1.25L8.1239 7.36875L6.4239 11.1938C6.24891 11.1427 6.0864 11.056 5.94662 10.939C5.80684 10.822 5.69282 10.6773 5.61178 10.5141C5.53073 10.3508 5.48441 10.1725 5.47574 9.99044C5.46707 9.80837 5.49624 9.62648 5.5614 9.45625L5.89265 8.5625C5.96323 8.37359 5.98706 8.17041 5.9621 7.9703C5.93715 7.77018 5.86414 7.57908 5.74932 7.41329C5.6345 7.24751 5.48127 7.11196 5.30271 7.01823C5.12415 6.9245 4.92557 6.87536 4.7239 6.875L1.8739 6.875C1.78208 6.87515 1.69136 6.85507 1.60818 6.81618C1.525 6.77729 1.45141 6.72056 1.39265 6.65C1.33244 6.58043 1.28834 6.49841 1.26349 6.40982C1.23864 6.32123 1.23366 6.22824 1.2489 6.1375Z" fill="#1e1e1e"/>
</svg>
