<svg width="24" height="27" viewBox="0 0 24 27" fill="none" xmlns="http://www.w3.org/2000/svg">
<path d="M5.58801 0H4.91304C4.82692 0 4.74524 0.018097 4.66611 0.0438115C4.27075 0.172032 3.97852 0.59412 3.97852 1.10044V1.56506V2.75431V3.37305C3.97852 3.48801 3.99767 3.59664 4.02545 3.70064C4.14443 4.14739 4.49452 4.47349 4.91304 4.47349H5.58801C6.10423 4.47349 6.52253 3.98086 6.52253 3.37305V2.75431V1.56506V1.10044C6.52253 0.492627 6.10423 0 5.58801 0Z" fill="black"/>
<path d="M18.8722 0H18.1972C17.681 0 17.2627 0.492627 17.2627 1.10044V1.56506V2.75431V3.37305C17.2627 3.98086 17.681 4.47349 18.1972 4.47349H18.8722C19.3884 4.47349 19.8067 3.98086 19.8067 3.37305V2.75431V1.56506V1.10044C19.8065 0.492627 19.3882 0 18.8722 0Z" fill="black"/>
<path d="M22.3205 2.75439H20.6493V3.37313C20.6493 4.44429 19.8522 5.31567 18.8726 5.31567H18.1977C17.2181 5.31567 16.421 4.44429 16.421 3.37313V2.75439H7.36421V3.37313C7.36421 4.44429 6.56715 5.31567 5.58758 5.31567H4.91262C3.933 5.31567 3.13598 4.44429 3.13598 3.37313V2.75439H1.67981C0.752237 2.75439 0 3.45965 0 4.32914V25.3022C0 26.1734 0.752193 26.877 1.67981 26.877H22.3202C23.2486 26.877 24 26.1732 24 25.3022V4.32936C24.0002 3.45987 23.2489 2.75439 22.3205 2.75439ZM21.7996 24.5654L2.13937 24.5578V7.64913H21.7996V24.5654Z" fill="black"/>
<path d="M14.1058 11.724H19.2763C19.7251 11.724 20.0881 11.2758 20.0881 10.7218C20.0881 10.1679 19.725 9.71973 19.2763 9.71973H14.1058C13.6569 9.71973 13.2939 10.1679 13.2939 10.7218C13.2939 11.2755 13.6569 11.724 14.1058 11.724Z" fill="black"/>
<path d="M14.1058 15.3435H19.2763C19.7251 15.3435 20.0881 14.8953 20.0881 14.3414C20.0881 13.7876 19.725 13.3394 19.2763 13.3394H14.1058C13.6569 13.3394 13.2939 13.7876 13.2939 14.3414C13.2939 14.8953 13.6569 15.3435 14.1058 15.3435Z" fill="black"/>
<path d="M14.1058 18.9632H19.2763C19.7251 18.9632 20.0881 18.515 20.0881 17.9611C20.0881 17.4072 19.725 16.959 19.2763 16.959H14.1058C13.6569 16.959 13.2939 17.4072 13.2939 17.9611C13.2939 18.515 13.6569 18.9632 14.1058 18.9632Z" fill="black"/>
<path d="M14.1058 22.5833H19.2763C19.7251 22.5833 20.0881 22.1351 20.0881 21.5812C20.0881 21.0273 19.725 20.5791 19.2763 20.5791H14.1058C13.6569 20.5791 13.2939 21.0273 13.2939 21.5812C13.2939 22.1351 13.6569 22.5833 14.1058 22.5833Z" fill="black"/>
<path d="M4.94755 11.724H10.1181C10.5669 11.724 10.9299 11.2758 10.9299 10.7218C10.9299 10.1679 10.5667 9.71973 10.1181 9.71973H4.94755C4.4987 9.71973 4.13574 10.1679 4.13574 10.7218C4.13579 11.2755 4.4987 11.724 4.94755 11.724Z" fill="black"/>
<path d="M4.94755 15.3435H10.1181C10.5669 15.3435 10.9299 14.8953 10.9299 14.3414C10.9299 13.7876 10.5667 13.3394 10.1181 13.3394H4.94755C4.4987 13.3394 4.13574 13.7876 4.13574 14.3414C4.13579 14.8953 4.4987 15.3435 4.94755 15.3435Z" fill="black"/>
<path d="M4.94755 18.9632H10.1181C10.5669 18.9632 10.9299 18.515 10.9299 17.9611C10.9299 17.4072 10.5667 16.959 10.1181 16.959H4.94755C4.4987 16.959 4.13574 17.4072 4.13574 17.9611C4.13574 18.515 4.4987 18.9632 4.94755 18.9632Z" fill="black"/>
<path d="M4.94755 22.5833H10.1181C10.5669 22.5833 10.9299 22.1351 10.9299 21.5812C10.9299 21.0273 10.5667 20.5791 10.1181 20.5791H4.94755C4.4987 20.5791 4.13574 21.0273 4.13574 21.5812C4.13579 22.1351 4.4987 22.5833 4.94755 22.5833Z" fill="black"/>
</svg>
