<svg width="14" height="14" viewBox="0 0 14 14" fill="none" xmlns="http://www.w3.org/2000/svg">
    <path d="M4.06819 9.80758L2.90903 11.0995C2.83175 10.9272 2.46854 10.2727 1.63394 9.03245C0.613875 8.30899 0.513414 9.33389 0.590691 9.93677C0.861164 10.3243 1.51802 11.3837 1.98169 12.5205C2.44536 13.6574 3.37269 12.4775 3.72044 12.0038C3.60453 12.0469 3.85954 11.9263 6.27061 9.03245C8.47303 6.57786 9.40036 5.67354 12.8779 2.18545C13.0633 1.04858 12.3369 0.93662 11.9505 1.02275C10.5595 2.3577 7.47614 5.441 6.27061 7.09462C5.34328 8.12813 4.41594 9.33389 4.06819 9.80758Z" fill="#828282" stroke="#828282"/>
</svg>
