<svg width="24" height="24" viewBox="0 0 24 24" fill="none" xmlns="http://www.w3.org/2000/svg">
<path d="M8.00008 2.00015L7.29297 1.29304L8.00008 0.585938L8.70719 1.29304L8.00008 2.00015ZM9.00008 17.0002C9.00008 17.5525 8.55237 18.0002 8.00008 18.0002C7.4478 18.0002 7.00008 17.5525 7.00008 17.0002H9.00008ZM2.29297 6.29304L7.29297 1.29304L8.70719 2.70726L3.70719 7.70726L2.29297 6.29304ZM8.70719 1.29304L13.7072 6.29304L12.293 7.70726L7.29297 2.70726L8.70719 1.29304ZM9.00008 2.00015V17.0002H7.00008V2.00015H9.00008Z" fill="black"/>
<path d="M16.0001 22L15.293 22.7071L16.0001 23.4142L16.7072 22.7071L16.0001 22ZM17.0001 7C17.0001 6.44772 16.5524 6 16.0001 6C15.4478 6 15.0001 6.44771 15.0001 7H17.0001ZM10.293 17.7071L15.293 22.7071L16.7072 21.2929L11.7072 16.2929L10.293 17.7071ZM16.7072 22.7071L21.7072 17.7071L20.293 16.2929L15.293 21.2929L16.7072 22.7071ZM17.0001 22V7H15.0001V22H17.0001Z" fill="black"/>
</svg>
