<svg width="18" height="18" viewBox="0 0 18 18" fill="none" xmlns="http://www.w3.org/2000/svg">
    <path d="M5.47541 12.8143L3.97211 14.5368C3.87189 14.3072 3.40086 13.4344 2.31849 11.7808C0.995591 10.8162 0.865305 12.1827 0.965525 12.9866C1.31629 13.5033 2.16816 14.9158 2.76948 16.4316C3.3708 17.9474 4.57343 16.3742 5.02442 15.7426C4.87409 15.8 5.20482 15.6392 8.33167 11.7808C11.1879 8.50801 12.3906 7.30225 16.9004 2.65146C17.141 1.13564 16.1989 0.986356 15.6978 1.10119C13.8939 2.88112 9.89509 6.9922 8.33167 9.19702C7.12903 10.575 5.9264 12.1827 5.47541 12.8143Z" fill="#00FF00" fill-opacity="0.941176" stroke="#00FF00"/>
</svg>
