<svg width="18" height="18" viewBox="0 0 18 18" fill="none" xmlns="http://www.w3.org/2000/svg">
<g clip-path="url(#clip0_545_332)">
<path d="M2.79344 9.81818H12.2726C12.7245 9.81818 13.0908 9.45185 13.0908 9C13.0908 8.54814 12.7245 8.18181 12.2726 8.18181H2.79344L3.85129 7.12401C4.17082 6.80454 4.17082 6.28647 3.85129 5.96694C3.53187 5.64741 3.0138 5.64741 2.69422 5.96694L0.239836 8.42132C0.220855 8.44025 0.202964 8.46005 0.185945 8.48078C0.1818 8.48585 0.178255 8.4913 0.174218 8.49649C0.161727 8.51236 0.149455 8.52829 0.138218 8.54509C0.134945 8.55 0.132273 8.55518 0.129055 8.56014C0.117818 8.5777 0.1068 8.59543 0.0968727 8.61392C0.0949636 8.61758 0.0933818 8.62145 0.0914727 8.6251C0.0811636 8.64512 0.0712364 8.66541 0.0625636 8.68636C0.0614727 8.68892 0.0607091 8.69165 0.0596727 8.69427C0.0507818 8.7163 0.0425455 8.73861 0.0355636 8.76158C0.0346364 8.76447 0.0341455 8.76747 0.0333273 8.77041C0.0267273 8.79294 0.0206727 8.81569 0.0160364 8.83898C0.0146727 8.8459 0.0140727 8.85305 0.0128182 8.86003C0.00943636 8.87934 0.00605454 8.89865 0.00414545 8.91834C0.00136364 8.94534 0 8.97261 0 9C0 9.02738 0.00136364 9.05465 0.00414545 9.0817C0.00605454 9.10167 0.00954545 9.12114 0.0128727 9.14061C0.0140727 9.14738 0.0146727 9.1543 0.0160364 9.16101C0.0207273 9.18452 0.0267273 9.20749 0.0333818 9.23023C0.0342 9.2329 0.0346909 9.23574 0.0355091 9.23841C0.0425455 9.26149 0.0507818 9.28401 0.0597818 9.30627C0.0607636 9.30867 0.0614727 9.31123 0.0625091 9.31363C0.0712364 9.33474 0.0812182 9.35514 0.0916364 9.37527C0.0934364 9.37881 0.0949636 9.38252 0.0968182 9.38607C0.106855 9.40467 0.117927 9.42256 0.129327 9.44029C0.132382 9.44509 0.135 9.45016 0.138164 9.45485C0.149455 9.47171 0.161836 9.48774 0.174273 9.50367C0.178255 9.5088 0.1818 9.5142 0.185891 9.51921C0.202964 9.53989 0.220855 9.55974 0.239782 9.57867L2.69416 12.0331C2.85393 12.1929 3.06333 12.2727 3.27273 12.2727C3.48213 12.2727 3.69153 12.1929 3.85124 12.0331C4.17076 11.7135 4.17076 11.1955 3.85124 10.876L2.79344 9.81818Z" fill="black"/>
<path d="M11.3072 2.30722C9.07393 2.30722 6.99608 3.41515 5.7489 5.27084C5.4969 5.64584 5.59661 6.1542 5.97161 6.40626C6.34666 6.65826 6.85497 6.55866 7.10708 6.18355C8.04968 4.78091 9.61982 3.94353 11.3072 3.94353C14.0953 3.94358 16.3637 6.21186 16.3637 9C16.3637 11.7881 14.0953 14.0564 11.3072 14.0564C9.62479 14.0564 8.05721 13.2228 7.1139 11.8265C6.86086 11.4521 6.35239 11.3537 5.97788 11.6066C5.60348 11.8596 5.50497 12.3682 5.75795 12.7426C7.00601 14.5899 9.08048 15.6928 11.3072 15.6928C14.9976 15.6928 18 12.6904 18 9C18 5.30957 14.9976 2.30722 11.3072 2.30722Z" fill="black"/>
</g>
<defs>
<clipPath id="clip0_545_332">
<rect width="18" height="18" fill="white"/>
</clipPath>
</defs>
</svg>
