<svg width="8" height="12" viewBox="0 0 8 12" fill="none" xmlns="http://www.w3.org/2000/svg">
    <path d="M7.76357 3.50001C7.76355 2.72953 7.50215 1.98058 7.01992 1.36933C6.53768 0.758075 5.86156 0.318669 5.09641 0.119259C4.33126 -0.0801515 3.51985 -0.0284218 2.788 0.266425C2.05616 0.561272 1.44479 1.08276 1.04871 1.75001C0.91254 1.97973 0.875736 2.25265 0.946388 2.50876C1.01704 2.76487 1.18937 2.98321 1.42548 3.11577C1.66159 3.24834 1.94216 3.28428 2.20551 3.21569C2.46886 3.1471 2.69342 2.9796 2.82983 2.75001C2.96538 2.52219 3.16007 2.333 3.39442 2.20138C3.62877 2.06975 3.89456 2.00031 4.16518 2.00001C4.57418 2.00001 4.96644 2.15804 5.25565 2.43935C5.54487 2.72065 5.70735 3.10218 5.70735 3.50001C5.70735 3.89783 5.54487 4.27936 5.25565 4.56067C4.96644 4.84197 4.57418 5.00001 4.16518 5.00001H4.16267C4.09662 5.00644 4.03142 5.01941 3.96808 5.03871C3.89881 5.0457 3.83041 5.05932 3.76388 5.07936C3.70727 5.10927 3.65373 5.14438 3.60399 5.18421C3.54495 5.21545 3.48916 5.25221 3.43744 5.29396C3.39121 5.34762 3.35087 5.40584 3.31709 5.46766C3.27963 5.51275 3.24636 5.561 3.21769 5.61183C3.19535 5.68075 3.18058 5.75179 3.17363 5.82374C3.15573 5.88124 3.14349 5.94026 3.13706 6.00001V7.00001L3.13945 7.01136L3.14058 7.50245C3.14129 7.76723 3.24991 8.02093 3.44264 8.20793C3.63537 8.39493 3.89647 8.49997 4.16869 8.50001H4.1712C4.44387 8.49934 4.7051 8.39336 4.89743 8.20537C5.08977 8.01738 5.19746 7.76278 5.19681 7.49757L5.19523 6.83619C5.93502 6.62228 6.5843 6.1823 7.04689 5.58141C7.50948 4.98052 7.76078 4.25068 7.76357 3.50001ZM3.44278 10.29C3.29843 10.4293 3.19977 10.607 3.15927 10.8008C3.11876 10.9946 3.13824 11.1957 3.21524 11.3787C3.29223 11.5617 3.42329 11.7185 3.59184 11.829C3.76038 11.9396 3.95886 11.9991 4.16216 12C4.43483 11.9978 4.69625 11.894 4.89259 11.71C5.08342 11.5203 5.19027 11.2655 5.19027 11C5.19027 10.7346 5.08342 10.4798 4.89259 10.2901C4.69577 10.1117 4.43674 10.0125 4.1677 10.0125C3.89866 10.0124 3.63962 10.1116 3.44278 10.29Z" fill="#828282"/>
</svg>
