<svg width="40" height="40" viewBox="0 0 40 40" fill="none" xmlns="http://www.w3.org/2000/svg">
<g clip-path="url(#clip0_676_120)">
<mask id="mask0_676_120" style="mask-type:luminance" maskUnits="userSpaceOnUse" x="0" y="0" width="40" height="40">
<path d="M40 0H0V40H40V0Z" fill="white"/>
</mask>
<g mask="url(#mask0_676_120)">
<path d="M6.20764 21.8182H27.2724C28.2767 21.8182 29.0907 21.0041 29.0907 20C29.0907 18.9959 28.2767 18.1818 27.2724 18.1818H6.20764L8.55842 15.8311C9.26849 15.1212 9.26849 13.9699 8.55842 13.2599C7.8486 12.5498 6.69733 12.5498 5.98716 13.2599L0.532969 18.7141C0.490789 18.7561 0.451031 18.8001 0.413211 18.8462C0.404 18.8575 0.396122 18.8696 0.387151 18.8811C0.359393 18.9164 0.332122 18.9518 0.307151 18.9891C0.299878 19 0.29394 19.0115 0.286789 19.0225C0.261818 19.0616 0.237333 19.101 0.215273 19.1421C0.21103 19.1502 0.207515 19.1588 0.203273 19.1669C0.180364 19.2114 0.158303 19.2565 0.13903 19.303C0.136606 19.3087 0.134909 19.3148 0.132606 19.3206C0.112848 19.3696 0.0945456 19.4191 0.0790302 19.4702C0.0769698 19.4766 0.0758789 19.4833 0.0740607 19.4898C0.059394 19.5399 0.0459393 19.5904 0.0356364 19.6422C0.032606 19.6576 0.0312727 19.6735 0.0284849 19.689C0.0209697 19.7319 0.0134545 19.7748 0.00921211 19.8185C0.00303031 19.8785 0 19.9391 0 20C0 20.0609 0.00303031 20.1215 0.00921211 20.1816C0.0134545 20.2259 0.0212121 20.2692 0.028606 20.3125C0.0312727 20.3275 0.032606 20.3429 0.0356364 20.3578C0.0460607 20.4101 0.059394 20.4611 0.0741818 20.5116C0.076 20.5176 0.0770909 20.5239 0.0789091 20.5298C0.0945456 20.5811 0.112848 20.6311 0.132848 20.6806C0.13503 20.6859 0.136606 20.6916 0.138909 20.697C0.158303 20.7439 0.180485 20.7892 0.203636 20.8339C0.207636 20.8418 0.21103 20.8501 0.215152 20.8579C0.237456 20.8993 0.26206 20.939 0.287393 20.9784C0.294182 20.9891 0.3 21.0004 0.307031 21.0108C0.332122 21.0483 0.359636 21.0839 0.387273 21.1193C0.396122 21.1307 0.404 21.1427 0.413091 21.1538C0.451031 21.1998 0.490789 21.2439 0.532849 21.2859L5.98702 26.7402C6.34207 27.0953 6.8074 27.2727 7.27273 27.2727C7.73807 27.2727 8.2034 27.0953 8.55831 26.7402C9.26836 26.03 9.26836 24.8789 8.55831 24.1689L6.20764 21.8182Z" fill="white"/>
<path d="M25.1271 5.12717C20.1643 5.12717 15.5468 7.58923 12.7753 11.713C12.2153 12.5463 12.4369 13.676 13.2702 14.2361C14.1037 14.7961 15.2333 14.5748 15.7935 13.7412C17.8882 10.6243 21.3774 8.76341 25.1271 8.76341C31.3229 8.76352 36.3638 13.8041 36.3638 20C36.3638 26.1958 31.3229 31.2365 25.1271 31.2365C21.3884 31.2365 17.9049 29.384 15.8087 26.2811C15.2464 25.4491 14.1164 25.2305 13.2842 25.7925C12.4522 26.3547 12.2333 27.4849 12.7954 28.3169C15.5689 32.422 20.1788 34.8729 25.1271 34.8729C33.328 34.8729 40 28.2009 40 20C40 11.7991 33.328 5.12717 25.1271 5.12717Z" fill="white"/>
</g>
</g>
<defs>
<clipPath id="clip0_676_120">
<rect width="40" height="40" fill="white"/>
</clipPath>
</defs>
</svg>
